<svg width="259" height="297" viewBox="0 0 259 297" fill="none" xmlns="http://www.w3.org/2000/svg">
<path d="M230.961 88.3936C238.821 86.6235 247.345 92.8832 248.46 100.781C249.805 110.31 240.986 117.63 233.845 122.142C225.988 127.107 217.464 131.542 213.137 140.222C209.398 147.723 208.857 156.857 211.931 164.682C217.882 179.83 234.894 185.043 246.183 195.163C248.944 197.637 251.393 200.455 253.167 203.725C255.495 208.017 256.448 212.914 256.228 217.773C255.781 227.663 250.428 236.491 243.16 242.948C235.675 249.599 225.458 252.947 219.127 260.918C216.413 264.335 214.357 268.657 214.663 273.123C214.928 276.988 216.846 280.796 220.008 283.086C221.548 284.201 223.324 284.826 225.216 284.964C226.373 285.049 226.367 283.247 225.216 283.163C221.092 282.862 218.025 279.36 216.918 275.578C215.628 271.173 217.205 266.642 219.779 263.023C222.71 258.9 226.927 255.98 231.17 253.348C235.469 250.679 239.841 248.157 243.703 244.858C250.939 238.678 256.462 230.275 257.757 220.722C258.414 215.876 258.012 210.838 256.283 206.244C254.895 202.555 252.7 199.252 250.013 196.382C244.746 190.755 237.948 186.853 231.56 182.664C225.169 178.471 218.63 173.751 214.917 166.874C210.848 159.338 210.724 149.81 214.257 142.045C216.148 137.888 219.04 134.459 222.599 131.622C226.475 128.532 230.867 126.171 235.038 123.517C242.301 118.896 250.103 112.14 250.366 102.826C250.588 94.9338 243.895 87.7986 236.286 86.5094C234.346 86.1807 232.403 86.2244 230.482 86.6569C229.352 86.9114 229.83 88.6482 230.961 88.3936L230.961 88.3936Z" fill="#3F3D56"/>
<g filter="url(#filter0_d_245_50)">
<path d="M31.855 295.274H39.0445L39.0445 178.973H31.855L31.855 295.274Z" fill="#F2F2F2"/>
<path d="M60.613 295.274H67.8025L67.8025 178.973H60.613L60.613 295.274Z" fill="#F2F2F2"/>
<path d="M105.442 295.274H112.631L112.631 178.973H105.442L105.442 295.274Z" fill="#F2F2F2"/>
<path d="M118.975 295.274H126.164L126.164 178.973H118.975L118.975 295.274Z" fill="#F2F2F2"/>
<path d="M28.0487 177.281L18.2652 126.47C16.4666 117.129 22.9617 108.22 32.4056 107.075L84.719 100.734C84.719 100.734 91.9085 159.519 91.9085 156.559C91.9085 153.598 163.169 163.96 136.526 178.762C109.882 193.564 37.9872 189.334 28.0487 177.281H28.0487Z" fill="#F2F2F2"/>
</g>
<path d="M144.584 263.997L153.444 272.856L165.678 279.185L164.412 290.153L141.209 287.622L138.256 281.716L139.1 276.653L137.413 268.638L144.584 263.997Z" fill="#A0616A"/>
<path d="M162.725 285.935L163.449 276.627L188.459 288.466C188.459 288.466 190.396 293.95 184.365 294.794C178.334 295.638 138.256 295.638 138.256 293.528C138.256 291.419 137.16 280.62 137.16 280.62L161.459 287.622L162.725 285.935V285.935Z" fill="#010101"/>
<path d="M112.72 239.39L106.312 250.156L103.188 263.571L92.2445 265.042L88.9907 241.929L93.9891 237.614L99.1036 237.187L106.458 233.58L112.72 239.39Z" fill="#A0616A"/>
<path d="M95.9186 262.369L105.118 260.782L99.795 287.935C99.795 287.935 94.9555 291.161 92.6542 285.523C90.353 279.885 80.495 241.039 82.5396 240.52C84.5841 240.001 94.782 236.282 94.782 236.282L93.9716 261.557L95.9186 262.369Z" fill="#010101"/>
<path d="M84.9305 37.9319L83.6617 63.7295L103.962 64.1524V41.9595L84.9305 37.9319Z" fill="#A0616A"/>
<path opacity="0.1" d="M84.9305 37.9319L83.6617 63.7295L103.962 64.1524V41.9595L84.9305 37.9319Z" fill="black"/>
<path d="M50.6747 144.506C50.6747 144.506 41.3706 168.612 48.1372 178.339C54.9038 188.066 86.6222 193.564 86.6222 193.564L99.7325 205.828L134.411 272.648L154.711 267.996L125.953 199.484C125.953 199.484 109.037 171.995 102.693 168.189C96.3492 164.383 84.5368 150.092 84.5368 150.092L50.6747 144.506H50.6747Z" fill="#010101"/>
<path d="M108.191 146.62L121.218 155.846C121.218 155.846 167.398 168.189 152.596 196.947C137.794 225.705 115.803 246.428 115.803 246.428L96.3491 235.432L127.645 191.449L72.666 158.039L108.191 146.62V146.62Z" fill="#010101"/>
<path d="M226.602 111.552C232.724 112.784 237.051 116.941 236.266 120.837C235.482 124.732 229.884 126.891 223.76 125.658C221.307 125.199 218.999 124.159 217.031 122.626L191.158 117.079L193.377 106.854L219.221 111.745C221.631 111.092 224.162 111.026 226.602 111.552V111.552Z" fill="#A0616A"/>
<path d="M128.905 177.631C133.379 181.987 134.758 187.826 131.986 190.673C129.213 193.52 123.34 192.297 118.864 187.939C117.052 186.222 115.678 184.097 114.856 181.741L96.1312 163.045L103.543 155.659L122.6 173.788C124.978 174.547 127.14 175.865 128.905 177.631Z" fill="#A0616A"/>
<path d="M102.904 54.637H76.5871L57.2297 67.7472L58.9213 119.343C58.9213 119.343 62.4585 132.299 50.4631 144.294C43.2736 151.484 45.8111 155.713 45.8111 155.713L88.5252 159.096L114.111 151.695L104.807 128.435L106.499 121.246C106.499 121.246 123.838 108.981 120.878 96.2938C117.918 83.6064 114.111 57.3859 114.111 57.3859L102.904 54.637Z" fill="#121212"/>
<path d="M84.5076 130.55L65.4766 67.9588C65.4766 67.9588 55.7496 64.5755 51.5205 73.0338C47.2914 81.492 52.6111 113.845 52.6111 113.845L74.7807 150.427L110.305 177.493L119.186 167.766L84.5076 130.55Z" fill="#121212"/>
<path d="M164.821 98.2685L113.771 57.3572C113.771 57.3572 103.833 60.0574 105.118 69.4262C106.404 78.795 129.063 102.492 129.063 102.492L168.016 120.166L212.619 122.445L214.456 109.402L164.821 98.2685L164.821 98.2685Z" fill="#121212"/>
<path d="M96.9835 49.9851C106.793 49.9851 114.746 42.0326 114.746 32.2228C114.746 22.4129 106.793 14.4604 96.9835 14.4604C87.1736 14.4604 79.2212 22.4129 79.2212 32.2228C79.2212 42.0326 87.1736 49.9851 96.9835 49.9851Z" fill="#A0616A"/>
<path d="M229.954 89.5205H224.351V294.432H229.954V89.5205Z" fill="#3F3D56"/>
<path d="M225.71 118.002L174.883 76.3916L176.167 75.4348L226.995 117.045L225.71 118.002Z" fill="#3F3D56"/>
<path d="M228.354 93.1226H225.152C219.635 93.1226 215.146 88.6342 215.146 83.1171V55.9024C215.146 50.3853 219.635 45.897 225.152 45.897H228.354C233.871 45.897 238.359 50.3853 238.359 55.9024V83.1171C238.359 88.6342 233.871 93.1226 228.354 93.1226Z" fill="#9C1112"/>
<path d="M174.324 91.1214C182.503 91.1214 189.132 80.1912 189.132 66.7082C189.132 53.2251 182.503 42.2949 174.324 42.2949C166.146 42.2949 159.516 53.2251 159.516 66.7082C159.516 80.1912 166.146 91.1214 174.324 91.1214Z" fill="#9C1112"/>
<path d="M227.553 80.7158C218.971 80.7158 202.74 79.5449 202.74 75.1128C202.74 72.9366 206.591 71.3224 214.187 70.3148L214.397 71.9016C206.188 72.9913 204.341 74.6258 204.341 75.1128C204.341 76.4713 212.534 79.1149 227.553 79.1149C242.573 79.1149 250.766 76.4713 250.766 75.1128C250.766 74.4288 247.939 72.6982 239.203 71.718L239.381 70.1265C245.305 70.7917 252.367 72.1963 252.367 75.1128C252.367 79.5449 236.136 80.7158 227.553 80.7158Z" fill="#3F3D56"/>
<path d="M87.8787 2.48585C87.8787 2.48585 80.7585 -2.65654 74.4294 8.41939C70.1061 15.9851 67.8131 30.38 66.7939 38.7442C66.3248 42.5937 68.3206 46.3219 71.7794 48.0756L94.2078 59.4478C94.2078 59.4478 85.9009 27.8023 97.3724 23.0554C108.844 18.3086 108.448 19.4953 108.448 19.4953C108.448 19.4953 117.546 39.2738 105.679 47.9763L115.569 54.3054C115.569 54.3054 122.293 17.1219 110.031 10.0017C97.7679 2.88142 100.537 -2.26098 87.8787 2.48585Z" fill="#010101"/>
<defs>
<filter id="filter0_d_245_50" x="0.965454" y="100.734" width="141.524" height="202.54" filterUnits="userSpaceOnUse" color-interpolation-filters="sRGB">
<feFlood flood-opacity="0" result="BackgroundImageFix"/>
<feColorMatrix in="SourceAlpha" type="matrix" values="0 0 0 0 0 0 0 0 0 0 0 0 0 0 0 0 0 0 127 0" result="hardAlpha"/>
<feOffset dx="-13" dy="4"/>
<feGaussianBlur stdDeviation="2"/>
<feComposite in2="hardAlpha" operator="out"/>
<feColorMatrix type="matrix" values="0 0 0 0 0 0 0 0 0 0 0 0 0 0 0 0 0 0 0.25 0"/>
<feBlend mode="normal" in2="BackgroundImageFix" result="effect1_dropShadow_245_50"/>
<feBlend mode="normal" in="SourceGraphic" in2="effect1_dropShadow_245_50" result="shape"/>
</filter>
</defs>
</svg>
