<svg width="218" height="308" viewBox="0 0 218 308" fill="none" xmlns="http://www.w3.org/2000/svg">
<path d="M28.0519 100.194C20.1916 98.4237 11.6676 104.684 10.5532 112.581C9.20854 122.11 18.0272 129.43 25.1678 133.942C33.0246 138.907 41.5492 143.343 45.8756 152.022C49.6146 159.524 50.1565 168.657 47.082 176.483C41.1311 191.63 24.1192 196.843 12.8296 206.963C10.0692 209.438 7.62011 212.256 5.8464 215.525C3.51845 219.817 2.56547 224.714 2.78493 229.573C3.23169 239.463 8.58516 248.291 15.853 254.749C23.3375 261.399 33.5552 264.747 39.8857 272.718C42.6001 276.136 44.6562 280.458 44.3498 284.923C44.0846 288.788 42.1675 292.596 39.0053 294.886C37.4651 296.001 35.6893 296.626 33.7968 296.764C32.6404 296.849 32.6458 295.047 33.7968 294.963C37.9208 294.662 40.9878 291.161 42.0953 287.378C43.385 282.974 41.8082 278.442 39.2345 274.823C36.3027 270.7 32.0858 267.781 27.8435 265.148C23.5438 262.479 19.172 259.957 15.3096 256.658C8.07412 250.478 2.55106 242.075 1.25612 232.522C0.59931 227.677 1.00087 222.638 2.72972 218.044C4.11808 214.355 6.31323 211.053 9.00011 208.182C14.2674 202.555 21.065 198.654 27.4525 194.464C33.8443 190.272 40.3835 185.551 44.096 178.674C48.1646 171.138 48.2887 161.61 44.756 153.845C42.8646 149.688 39.9729 146.259 36.4138 143.422C32.5376 140.332 28.1457 137.971 23.9751 135.317C16.7121 130.696 8.90961 123.94 8.64734 114.626C8.42513 106.734 15.1183 99.5989 22.7267 98.3097C24.6668 97.981 26.6102 98.0247 28.5307 98.4572C29.6609 98.7117 29.1826 100.448 28.0519 100.194V100.194Z" fill="#3F3D56"/>
<path d="M72.275 296.935L71.5504 287.627L46.5407 299.466C46.5407 299.466 44.6041 304.95 50.6349 305.794C56.6656 306.638 96.7436 306.638 96.7436 304.528C96.7436 302.419 97.8398 291.62 97.8398 291.62L73.5406 298.622L72.275 296.935V296.935Z" fill="#010101"/>
<path d="M154.727 48.4924L151.013 73.9292L130.714 74.3521V52.1592L154.727 48.4924Z" fill="#FFB6B6"/>
<path opacity="0.1" d="M154.727 48.4924L151.338 74.7297L131.038 75.1526V52.9597L154.727 48.4924Z" fill="black"/>
<g filter="url(#filter0_d_245_19)">
<path d="M203.145 189.973H195.955V306.274H203.145V189.973Z" fill="#F2F2F2"/>
<path d="M174.387 189.973H167.197V306.274H174.387V189.973Z" fill="#F2F2F2"/>
<path d="M129.558 189.973H122.369V306.274H129.558V189.973Z" fill="#F2F2F2"/>
<path d="M116.025 189.973H108.836V306.274H116.025V189.973Z" fill="#F2F2F2"/>
<path d="M206.951 188.281L216.735 137.47C218.533 128.129 212.038 119.22 202.594 118.075L150.281 111.734C150.281 111.734 143.091 170.519 143.091 167.559C143.091 164.598 71.8307 174.96 98.4742 189.762C125.118 204.564 197.013 200.334 206.951 188.281Z" fill="#F2F2F2"/>
</g>
<path d="M90.4154 274.997L81.5561 283.856L69.3218 290.185L70.5874 301.153L93.7904 298.622L96.7435 292.716L95.8998 287.653L97.5872 279.638L90.4154 274.997Z" fill="#FFB6B6"/>
<path d="M69.4564 215.764L64.2431 227.157L54.9839 237.355L59.9954 247.193L80.8588 236.729L81.5667 230.163L79.0103 225.713L77.7964 217.612L69.4564 215.764Z" fill="#FFB6B6"/>
<path d="M60.1057 242.651L56.1807 234.181L36.87 253.998C36.87 253.998 36.9676 259.814 42.914 258.501C48.8604 257.189 86.422 243.211 85.6864 241.234C84.9507 239.257 82.2118 228.754 82.2118 228.754L61.8804 243.791L60.1057 242.651Z" fill="#010101"/>
<path d="M184.325 155.506C184.325 155.506 193.629 179.612 186.863 189.339C180.096 199.066 148.378 204.564 148.378 204.564L135.268 216.828L100.589 283.648L80.2889 278.996L109.047 210.484C109.047 210.484 125.963 182.995 132.307 179.189C138.651 175.383 150.463 161.092 150.463 161.092L184.325 155.506H184.325Z" fill="#010101"/>
<path d="M148.347 166.744L133.35 161.273C133.35 161.273 96.9403 130.301 81.6988 158.829C66.4573 187.356 61.9137 217.229 61.9137 217.229L82.0201 226.981L100.408 176.229L159.152 202.46L148.347 166.744V166.744Z" fill="#010101"/>
<path d="M63.8014 182.73C59.7816 187.509 58.9888 193.456 62.0303 196.014C65.0718 198.572 70.7951 196.771 74.8157 191.99C76.448 190.103 77.6045 187.851 78.1884 185.425L94.9651 164.963L86.8565 158.349L69.6935 178.281C67.4023 179.272 65.382 180.798 63.8015 182.73L63.8014 182.73Z" fill="#FFB6B6"/>
<path d="M106.095 188.631C101.621 192.987 100.242 198.826 103.014 201.673C105.787 204.52 111.661 203.297 116.136 198.939C117.948 197.222 119.322 195.097 120.144 192.741L138.869 174.045L131.457 166.659L112.4 184.788C110.022 185.547 107.86 186.865 106.095 188.631Z" fill="#FFB6B6"/>
<path d="M132.096 65.637H158.413L177.77 78.7472L176.079 130.343C176.079 130.343 172.541 143.299 184.537 155.294C191.726 162.484 189.189 166.713 189.189 166.713L146.475 170.096L120.889 162.695L130.193 139.435L128.501 132.246C128.501 132.246 111.162 119.981 114.122 107.294C117.082 94.6064 120.889 68.3859 120.889 68.3859L132.096 65.637Z" fill="#9C1112"/>
<path d="M150.492 141.55L169.523 78.9588C169.523 78.9588 179.25 75.5755 183.48 84.0338C187.709 92.492 182.389 124.845 182.389 124.845L160.219 161.427L124.695 188.493L115.814 178.766L150.492 141.55Z" fill="#9C1112"/>
<path d="M103.839 133.838L118.264 70.028C118.264 70.028 127.719 65.9458 132.553 74.0739C137.386 82.202 134.435 114.856 134.435 114.856L114.986 152.954L81.5254 182.534L71.96 173.479L103.839 133.838V133.838Z" fill="#9C1112"/>
<path d="M27.4577 305.432H33.0607L33.0607 100.52H27.4577L27.4577 305.432Z" fill="#3F3D56"/>
<path d="M31.7018 129.002L82.5293 87.3915L81.245 86.4348L30.4175 128.045L31.7018 129.002Z" fill="#3F3D56"/>
<path d="M19.0532 94.117V66.9023C19.0532 61.3852 23.5415 56.8969 29.0586 56.8969H32.2603C37.7774 56.8969 42.2657 61.3852 42.2657 66.9023V94.117C42.2657 99.6341 37.7774 104.122 32.2603 104.122H29.0586C23.5415 104.122 19.0532 99.6341 19.0532 94.117Z" fill="#9C1112"/>
<path d="M83.0878 102.121C91.2661 102.121 97.8958 91.1912 97.8958 77.7082C97.8958 64.2251 91.2661 53.2949 83.0878 53.2949C74.9096 53.2949 68.2798 64.2251 68.2798 77.7082C68.2798 91.1912 74.9096 102.121 83.0878 102.121Z" fill="#9C1112"/>
<path d="M29.859 91.7157C21.2766 91.7157 5.04553 90.5448 5.04553 86.1127C5.04553 83.1963 12.1072 81.7916 18.0311 81.1264L18.2093 82.7179C9.47293 83.6981 6.6464 85.4287 6.6464 86.1127C6.6464 87.4713 14.8395 90.1149 29.859 90.1149C44.8785 90.1149 53.0716 87.4713 53.0716 86.1127C53.0716 85.6257 51.2241 83.9912 43.0153 82.9016L43.2256 81.3148C50.8211 82.3224 54.6724 83.9365 54.6724 86.1127C54.6724 90.5448 38.4414 91.7157 29.859 91.7157Z" fill="#3F3D56"/>
<path d="M141.139 58.7476C151.582 58.7476 160.049 50.2812 160.049 39.8375C160.049 29.3938 151.582 20.9274 141.139 20.9274C130.695 20.9274 122.228 29.3938 122.228 39.8375C122.228 50.2812 130.695 58.7476 141.139 58.7476Z" fill="#FFB6B6"/>
<path d="M142.648 14.4142C142.101 14.7337 141.368 14.2504 141.192 13.6416C141.017 13.0328 141.221 12.3864 141.424 11.7861L142.444 8.76411C143.168 6.62085 143.936 4.40271 145.503 2.77141C147.868 0.309239 151.627 -0.317132 155.011 0.13665C159.357 0.719389 163.645 3.07256 165.666 6.96383C167.686 10.8551 166.826 16.2848 163.175 18.7126C168.378 24.6769 170.192 31.3239 169.906 39.234C169.62 47.1441 161 54.4239 155.378 59.9963C154.123 59.2353 152.982 55.669 153.672 54.3734C154.362 53.0779 153.373 51.5769 154.228 50.3836C155.083 49.1902 155.798 51.0904 154.934 49.9038C154.388 49.1551 156.517 47.4325 155.706 46.9844C151.785 44.8168 150.481 39.929 148.018 36.1861C145.047 31.6714 139.963 28.614 134.583 28.1067C131.619 27.8273 128.488 28.3334 126.059 30.0541C123.629 31.7748 122.056 34.8498 122.62 37.773C121.161 36.2916 120.435 34.1206 120.708 32.0594C120.982 29.9983 122.251 28.0923 124.046 27.0434C122.954 23.4335 123.889 19.281 126.423 16.4875C128.957 13.694 139.235 14.1698 142.934 14.905" fill="#010101"/>
<path d="M143.222 28.2163C148.121 28.7452 151.659 32.989 154.646 36.9082C156.367 39.1671 158.171 41.6617 158.128 44.5016C158.084 47.3727 156.164 49.8354 155.247 52.5564C153.747 57.004 155.209 62.2956 158.778 65.3431C155.251 66.0125 151.438 63.3677 150.829 59.8295C150.12 55.7106 153.243 51.7352 152.873 47.5721C152.547 43.9044 149.657 41.0817 147.2 38.3393C144.742 35.597 142.435 31.958 143.565 28.4536" fill="#010101"/>
<defs>
<filter id="filter0_d_245_19" x="77.5101" y="111.734" width="139.524" height="206.54" filterUnits="userSpaceOnUse" color-interpolation-filters="sRGB">
<feFlood flood-opacity="0" result="BackgroundImageFix"/>
<feColorMatrix in="SourceAlpha" type="matrix" values="0 0 0 0 0 0 0 0 0 0 0 0 0 0 0 0 0 0 127 0" result="hardAlpha"/>
<feOffset dx="-10" dy="7"/>
<feGaussianBlur stdDeviation="2.5"/>
<feComposite in2="hardAlpha" operator="out"/>
<feColorMatrix type="matrix" values="0 0 0 0 0 0 0 0 0 0 0 0 0 0 0 0 0 0 0.25 0"/>
<feBlend mode="normal" in2="BackgroundImageFix" result="effect1_dropShadow_245_19"/>
<feBlend mode="normal" in="SourceGraphic" in2="effect1_dropShadow_245_19" result="shape"/>
</filter>
</defs>
</svg>
