<svg width="18" height="18" viewBox="0 0 18 18" fill="none" xmlns="http://www.w3.org/2000/svg">
<g clip-path="url(#clip0_261_245)">
<path d="M4.68441 15.6893C5.86826 15.6893 6.82796 14.7296 6.82796 13.5457C6.82796 12.3619 5.86826 11.4022 4.68441 11.4022C3.50056 11.4022 2.54086 12.3619 2.54086 13.5457C2.54086 14.7296 3.50056 15.6893 4.68441 15.6893Z" fill="#121212"/>
<path d="M2.54086 9.2586C4.24637 9.2586 5.88204 9.93612 7.08802 11.1421C8.294 12.3481 8.97151 13.9837 8.97151 15.6893H11.1151C11.1151 13.4152 10.2117 11.2344 8.60374 9.62638C6.99576 8.0184 4.81488 7.11505 2.54086 7.11505V9.2586Z" fill="#121212"/>
<path d="M2.54086 4.97149C3.94833 4.97149 5.34203 5.24872 6.64237 5.78734C7.94271 6.32595 9.12422 7.11542 10.1195 8.11066C11.1147 9.10589 11.9042 10.2874 12.4428 11.5877C12.9814 12.8881 13.2586 14.2818 13.2586 15.6893H15.4022C15.4022 12.2782 14.0471 9.0069 11.6352 6.59493C9.22322 4.18297 5.95189 2.82794 2.54086 2.82794V4.97149Z" fill="#121212"/>
</g>
<defs>
<clipPath id="clip0_261_245">
<rect width="17.1484" height="17.1484" fill="white" transform="translate(0.397301 0.684448)"/>
</clipPath>
</defs>
</svg>
