<svg width="23" height="11" viewBox="0 0 23 11" fill="none" xmlns="http://www.w3.org/2000/svg">
<path d="M1.13357 10.0104C0.715437 10.0104 0.373306 9.66824 0.373306 9.2501V7.72957C0.373306 7.31143 0.715437 6.9693 1.13357 6.9693C1.55171 6.9693 1.89384 7.31143 1.89384 7.72957V9.2501C1.89384 9.66824 1.55175 10.0104 1.13357 10.0104Z" fill="#121212"/>
<path d="M4.1747 10.0104C3.75656 10.0104 3.41443 9.66825 3.41443 9.25011V6.209C3.41443 5.79086 3.75656 5.44873 4.1747 5.44873C4.59283 5.44873 4.93496 5.79086 4.93496 6.209V9.25011C4.93496 9.66825 4.59283 10.0104 4.1747 10.0104Z" fill="#121212"/>
<path d="M7.2158 10.0103C6.79767 10.0103 6.45554 9.66821 6.45554 9.25008V4.68843C6.45554 4.27029 6.79767 3.92816 7.2158 3.92816C7.63394 3.92816 7.97607 4.27029 7.97607 4.68843V9.25008C7.97607 9.66821 7.63394 10.0103 7.2158 10.0103Z" fill="#121212"/>
<path d="M10.2569 10.0104C9.83874 10.0104 9.49661 9.59222 9.49661 9.06001V3.35794C9.49661 2.82573 9.83874 2.40759 10.2569 2.40759C10.675 2.40759 11.0171 2.82573 11.0171 3.35794V9.06001C11.0171 9.59218 10.6751 10.0104 10.2569 10.0104Z" fill="#121212"/>
<path d="M19.7603 10.0104C21.2429 10.0104 22.4213 8.83192 22.4213 7.34941C22.4213 5.8669 21.2428 4.68845 19.7603 4.68845C19.4562 4.68845 19.1901 4.72647 18.886 4.8405C18.4299 2.36962 16.2631 0.506958 13.6781 0.506958C13.298 0.506958 12.9179 0.544982 12.5377 0.620987V10.0104H16.9473H19.7603Z" fill="#121212"/>
</svg>
